<?xml version="1.0" encoding="iso-8859-1"?>
<!-- Uploaded to: SVG Repo, www.svgrepo.com, Generator: SVG Repo Mixer Tools -->
<!DOCTYPE svg PUBLIC "-//W3C//DTD SVG 1.1//EN" "http://www.w3.org/Graphics/SVG/1.1/DTD/svg11.dtd">
<svg fill="#000000" version="1.1" id="Capa_1" xmlns="http://www.w3.org/2000/svg" xmlns:xlink="http://www.w3.org/1999/xlink" 
	 width="800px" height="800px" viewBox="0 0 147.719 147.719"
	 xml:space="preserve">
<g>
	<g>
		<path d="M23.709,123.769h4.43l8.477,17.266c4.314,8.768,11.617,8.932,16.315,0.369l9.683-17.635h61.393
			c11.074,0,20.062-8.976,20.062-20.057v-83.65C144.068,8.984,135.085,0,124.007,0H23.709C12.631,0,3.65,8.981,3.65,20.062v83.65
			C3.646,114.786,12.631,123.769,23.709,123.769z M118.84,10.917h14.312V34.09H118.84V10.917z M118.84,49.765h14.312v23.173H118.84
			V49.765z M118.84,88.616h14.312v23.179H118.84V88.616z M14.212,10.237h14.315v23.169H14.212V10.237z M14.212,49.089h14.315v23.173
			H14.212V49.089z M14.212,87.942h14.315v23.168H14.212V87.942z"/>
	</g>
</g>
</svg>